<svg width="20" height="24" viewBox="0 0 20 24" fill="none" xmlns="http://www.w3.org/2000/svg">
<path d="M2.44141 19.5078C2.87109 19.9277 3.57422 19.9277 3.98438 19.5176L9.99023 13.5117L15.9961 19.5176C16.416 19.9277 17.1191 19.9375 17.5391 19.5078C17.959 19.0879 17.959 18.3848 17.5488 17.9746L11.543 11.959L17.5488 5.95312C17.959 5.54297 17.9688 4.83008 17.5391 4.41992C17.1094 4 16.416 4 15.9961 4.41016L9.99023 10.416L3.98438 4.41016C3.57422 4 2.86133 3.99023 2.44141 4.41016C2.02148 4.83984 2.03125 5.55273 2.44141 5.95312L8.44727 11.959L2.44141 17.9746C2.03125 18.375 2.02148 19.0977 2.44141 19.5078Z" fill="#222222"/>
</svg>
